Patient4_TMGait_0pt4_03_right_04_EMG.mot
version=1
nRows=36
nColumns=33
inDegrees=no
endheader
time	1LAddLong	2LGlutMax	3LGlutMed	4LIliopsoas	5LSemiMemb	6LBicFemLong	7LRecFem	8LVastMed	9LVastLat	10LGasMed	11LTibAnt	12lTibPost	13LPeroneusLong	14LSol	15LExtDigLong	16LFlexDigLong	17RAddLong	18RGlutMax	19RGlutMed	20RIliopsoas	21RSemiMemb	22RBicFemLong	23RRecFem	24RVastMed	25RVastLat	26RGasMed	27RTibAnt	28RTibPost	29RPeroneusLong	30RSol	31RExtDigLong	32RFlexDigLong
5.543	0.003662	-0.025024	0.047913	-0.004578	0.014954	-0.010223	-0.045013	0.001373	0.11246	0.085907	-0.091553	0.027161	0.29907	0.12985	0.089111	0.016327	0.025024	-0.12711	0.48141	-0.016479	-0.034485	0.052338	0.049744	-0.091858	0.027771	-0.10651	0.11902	-0.000763	-0.027008	-0.065155	-0.003967	0.018158
5.544	0.002899	-0.051575	0.06134	0.00061	0.00473	-0.013733	-0.050659	0.004883	0.11475	0.006104	-0.016022	0.028992	0.092163	0.19257	-0.006561	0.016937	0.04776	-0.098114	0.29465	-0.011597	-0.016327	0.07309	0.032196	-0.12238	0.023651	-0.1001	0.10956	0.007935	0.20813	-0.095215	0.000916	0.011292
5.545	-0.001373	-0.05722	0.010986	0.000153	0.005188	0.006866	-0.030975	0.000153	0.12512	-0.056305	0.14771	0.027771	0.041962	0.25269	0.35202	0.006256	0.032501	-0.079346	0.092621	-0.001221	-0.081177	0.17761	0.027618	-0.13611	0.028534	-0.092316	0.12802	-0.003357	0.24216	-0.12207	-0.002441	0.01236
5.546	0.005798	-0.056915	0.03891	-0.01297	0.010529	-0.00946	-0.00473	-0.000305	0.12573	-0.040741	-0.0354	0.023956	-0.21164	0.26962	0.69321	0.006409	0.022888	-0.082397	-0.006256	-0.001373	-0.055084	0.18112	0.018463	-0.06012	0.016937	-0.093994	0.13947	-0.002289	-0.20599	-0.10544	-0.00351	0.00351
5.547	-0.006256	-0.054932	0.028534	0	0.009155	0.001221	0.037384	0.018311	0.121	-0.045166	-0.080566	0.019531	-0.42893	0.22781	-0.068665	-0.00473	0.000763	-0.12375	0.075531	0.010071	0.11368	0.12848	-0.011902	0.009766	0.021057	-0.086975	0.094147	-0.00473	-0.39719	-0.0914	-0.003967	0.011139
5.548	-0.000153	-0.089874	-0.032349	0.017548	0.003052	-0.014191	0.015259	0.016632	0.10361	-0.020599	0.041504	0.00946	-0.41916	-0.056763	-0.73807	0.010376	-0.010529	-0.077972	0.055695	-0.011597	0.12314	0.020599	0.006714	-0.062714	0.02655	-0.066833	0.041504	-0.007782	0.35248	-0.10025	-0.004272	0.010529
5.549	0.005951	-0.068207	-0.048523	0.03891	0.006561	0	-0.01358	0.013885	0.12283	-0.034943	0.061188	0.012054	0.26977	-0.11948	-0.95642	0.006409	0.001831	-0.14313	-0.1088	0.00061	-0.010681	-0.007324	0.040741	-0.083771	0.011749	-0.068359	-0.005951	-0.00351	0.33463	-0.084686	-0.002747	0.004578
5.55	0.003967	-0.082245	-0.049438	0.047302	0.00824	-0.001678	0.014648	0.003052	0.13138	-0.066223	-0.17838	-0.002289	0.10254	0.050354	-0.43106	-0.002899	0.033875	-0.13184	-0.27832	-0.010376	-0.084229	0.00061	0.053101	-0.1088	0.018158	-0.063782	0.042572	-0.001068	-0.29434	-0.032196	0.001068	0.00946
5.551	0.010986	-0.042419	0.087433	0.032806	0.009308	-0.024261	-0.014954	-0.001068	0.10864	-0.049133	-0.079346	-0.002136	0.24216	0.02243	-0.27741	0.003815	0.031281	-0.076752	-0.097504	-0.054321	-0.1152	0.038147	0.020752	-0.080719	0.002747	-0.055389	0.044403	-0.00824	0.13412	-0.011902	-0.00061	0.003357
5.552	0.001678	-0.072327	0.048065	0.020447	0.013428	-0.042114	-0.003052	-0.000916	0.097198	-0.050812	-0.053864	0.007019	0.39749	-0.043488	-0.096283	0.007629	-0.029602	-0.094147	0.030518	-0.098572	-0.093231	0.11597	-0.030365	-0.023193	0.019531	-0.055389	0.036469	-0.001984	0.12085	-0.014648	0.002289	0.009155
5.553	0.004272	-0.10849	0.021973	0.012665	-0.000458	-0.013428	0.035095	-0.01358	0.10849	-0.037689	-0.090485	0.00061	0.00473	-0.065308	0.040131	0.00473	-0.058899	-0.1384	0.18066	-0.12253	-0.045166	0.21973	-0.056305	0.079193	0.014191	-0.049896	0.038147	-0.00824	0.09613	-0.013428	-0.000305	0.002136
5.554	0.001373	-0.089264	-0.08255	-0.011444	0.014343	-0.011902	0.040131	-0.013123	0.079193	-0.050354	-0.12955	-0.004578	0.94299	-0.077057	0.037537	0.00885	-0.022583	-0.14862	0.4303	-0.088501	-0.13062	0.16296	-0.014954	0.019531	0.024414	-0.049133	0.071564	-0.003967	-0.002594	-0.010834	0.000458	0.007019
5.555	0.003815	-0.061188	-0.10071	-0.021057	0.011139	-0.023651	0.033417	-0.007629	0.057983	-0.03067	-0.12512	-0.002136	1.5404	-0.027771	0.14969	0.020752	0.019226	-0.1712	-0.1889	0.092926	-0.24353	0.062866	0.000305	-0.030365	0.008545	-0.047607	0.045013	-0.000763	-0.094147	-0.019531	-0.001678	0.005341
5.556	0.009918	-0.049591	-0.15671	-0.02594	0.012512	-0.016479	0.023499	0.000153	0.054932	-0.018158	-0.1445	-0.012665	-0.19775	0.11673	0.44357	0.02533	0.020599	-0.18631	-0.49591	0.23865	-0.057068	0.02243	-0.005646	0.022125	0.019379	-0.044708	0.027008	-0.001678	-0.056763	-0.041199	0.003815	0.010071
5.557	0.001678	-0.020294	-0.073242	-0.02121	0.012817	-0.001831	0.040131	-0.001526	0.062714	-0.02533	-0.079041	-0.009308	-0.64041	0.059509	0.27313	0.022278	0.016174	-0.12909	0.18188	0.1561	0.1207	-0.003204	-0.013885	-0.035553	0.018768	-0.041351	0.041046	0.005646	-0.025482	-0.037537	0.001526	0.007782
5.558	0.000153	-0.026855	0.29923	-0.015106	0.008698	0.008392	0.078888	0.00412	0.008545	0.047302	0.024414	-0.010376	-0.91904	-0.068207	0.1355	-0.003815	0.014801	-0.064087	0.44464	0.050507	-0.048676	-0.045471	-0.011444	-0.048676	0.005035	-0.03891	0.039978	-0.001221	-0.011902	-0.027771	0.000153	0.017395
5.559	-0.003967	-0.06012	0.23544	0.020752	0.010071	0.010223	0.084686	0.006409	0.020294	0.032196	0.063934	-0.004578	-0.98007	-0.11978	0.005188	-0.003967	-0.005188	-0.052338	0.15045	0.037384	-0.17258	-0.046082	-0.028839	-0.07309	0.021515	-0.036011	0.037231	-0.003357	0.010529	-0.025635	0.000153	0.025482
5.56	-0.001984	-0.056305	0.16312	0.00946	-0.004578	-0.007019	0.027161	0.008392	-0.000458	0.031433	0.036011	-0.009766	-0.17838	-0.086365	-0.043335	-0.004578	-0.03418	-0.04425	-0.2803	0.034637	-0.24262	0.027313	-0.050964	-0.050812	0.032959	-0.035553	0.032043	-0.007477	0.003052	-0.024261	-0.003357	0.031281
5.561	0.007019	-0.066071	0.074921	0.007935	0.012817	-0.010223	-0.13184	0.0177	0.039368	0.020752	0.02243	-0.013428	-0.121	-0.14267	-0.053711	0.009308	-0.067596	-0.028229	-0.36423	0.030823	0.12787	0.13382	-0.054321	-0.041504	0.025482	-0.037537	0.02182	-0.005646	0.023956	-0.005646	-0.004578	0.03479
5.562	0.004425	-0.055847	0.034943	0.015106	0.007324	-0.002899	-0.078888	0.006714	0.068512	0.073547	0.013275	-0.010681	-0.051117	-0.19073	-0.056305	0.000763	-0.08667	-0.003815	-0.28671	0.01236	0.29404	0.20416	-0.038147	-0.052032	0.011749	-0.032806	0.02121	-0.003052	0.02243	-0.023651	-0.002594	0.043182
5.563	0.000763	-0.066681	0.027313	0.023346	0.010529	0.011139	0.041656	0.003967	0.024109	0.056458	0.050507	-0.007172	0.097046	-0.12634	-0.043945	0.011749	-0.067139	-0.022888	-0.066681	0.00946	0.11017	0.21316	-0.038757	-0.043488	0.002136	-0.032196	0.043335	-0.001526	-0.016327	-0.034485	-0.003967	0.041504
5.564	-0.002747	-0.047913	0.061646	0.014191	0.01297	-0.007782	0.07309	0.006104	0.032959	0.062256	0.052795	-0.006561	0.27573	-0.006256	0.011292	0.019531	-0.052643	-0.002136	0.053253	0	0.10101	0.19165	-0.049591	-0.027924	0.027924	-0.032959	0.037231	-0.002747	-0.039825	-0.028687	0.004578	0.043488
5.565	0.00351	-0.066528	0.075073	0.000916	0.010986	-0.003204	0.045319	0.002747	0.057983	0.10834	-0.004425	-0.012817	0.48325	-0.086365	-0.068359	0.010681	-0.028381	-0.09903	0.16693	0.031433	0.11108	0.17059	-0.047455	-0.024414	0.020752	-0.034027	0.027924	-0.006714	-0.054321	-0.030365	-0.000458	0.059204
5.566	0.00412	-0.074463	0.049744	0.01358	0.021515	-0.003967	0.050659	0.006866	0.058441	0.1088	-0.045624	-0.006714	0.32105	-0.092773	-0.026398	0.0177	-0.024872	-0.093689	0.11993	-0.007477	0.020599	0.14801	-0.066071	0.044098	0.021057	-0.035706	0.019226	-0.004425	-0.022583	-0.034027	-0.00351	0.063782
5.567	-0.000763	-0.076752	0.030975	0.029297	0.014496	-0.017242	0.02655	0.002136	0.063782	0.056	-0.027771	-0.003967	0.26916	0.1358	0.17975	0.014648	-0.018311	-0.13351	0.41031	-0.12405	0.023956	0.13504	-0.062103	0.030212	0.024567	-0.037079	0.008087	-0.002136	0.048523	-0.05249	-0.000916	0.089569
5.568	0.001526	-0.038452	0.021667	0.019379	0.008087	-0.015411	0.030518	0.001678	0.052948	0.066071	-0.017548	-0.000916	-0.21301	0.008698	0.045319	0.013428	-0.000458	-0.12466	-0.25574	-0.16968	0.052185	0.11658	-0.060272	-0.031281	0.014038	-0.047913	0.014038	-0.00061	0.06958	-0.052185	-0.001068	0.1236
5.569	0.006104	-0.049896	0.032806	-0.018768	0.010529	0.006104	0.016174	-0.000916	0.058746	0.059967	-0.030823	-0.004883	-0.31311	-0.077057	-0.054626	0.007324	0.0177	-0.055847	-0.22842	-0.16357	0.087128	0.050507	-0.047455	-0.049286	0.019226	-0.059052	0.009003	-0.006256	0.089722	-0.047607	-0.000916	0.15778
5.57	-0.001678	-0.051117	0.024567	-0.016785	0.019379	-0.005951	-0.001068	-0.005951	0.042877	-0.018616	-0.038452	0.000305	0.33981	-0.079498	-0.071106	-0.000153	0.044708	-0.056152	-0.18723	-0.015259	0.11017	0.020905	-0.014496	-0.074921	0.019073	-0.079346	0.014191	-0.004272	-0.01709	-0.027924	-0.00061	0.25406
5.571	0.005341	-0.04715	-0.095367	-0.014954	0.017242	-0.022583	0.019073	-0.001221	0.032654	-0.061035	-0.016174	-0.003662	0.026245	0.055389	-0.040283	0.00885	0.040436	-0.11917	-0.2269	0.13565	0.096283	0.072174	-0.039978	-0.10101	0.001984	-0.093384	0.046844	-0.007324	0.014038	-0.006409	-0.000305	0.41458
5.572	-0.002136	-0.028381	-0.065308	0.005646	0.005798	0.005493	0.046844	0.003052	0.036926	-0.11948	0.014801	-0.010223	-0.34515	0.001678	0.00946	0.017853	0.018311	-0.082245	0.11398	0.20065	-0.1091	0.20721	-0.021362	-0.03891	0.005951	-0.096283	0.063171	-0.003357	0.037842	-0.036316	-0.002136	0.90286
5.573	-0.007477	-0.052032	-0.085144	0.006714	0.010834	0.011597	0.049744	0.005035	0.019531	-0.081482	0.051575	-0.002289	-0.4805	-0.17181	0.74631	0.004578	0.007172	-0.06012	0.016785	0.17456	-0.224	0.3096	-0.028687	-0.007324	0.014954	-0.078125	0.042572	0	0.29739	-0.05188	-0.00412	0.11993
5.574	0.003967	-0.07019	0.058746	-0.001373	0.003357	0.031738	0.066833	0.007019	0.022583	-0.019531	0.077362	-0.012207	-0.33493	-0.12955	-0.17761	0.00885	-0.023804	-0.038605	-0.13382	0.055237	-0.12116	0.36789	-0.042419	0.00412	0.023346	-0.026855	-0.030212	-0.005341	-0.41382	-0.061951	-0.005493	-0.20676
5.575	-0.005188	-0.025024	0.04425	-0.005798	0.007019	0.007629	0.04715	-0.003662	0.028992	-0.038147	0.023804	-0.003204	-0.032043	0.071259	-0.55176	0.010986	-0.007477	-0.068665	-0.18051	0.021667	-0.075378	0.37918	-0.011139	0.017242	0.00885	0.008545	-0.024872	-0.007019	-0.24689	0.01236	-0.002441	-0.27664
5.576	0.002747	-0.039673	0.085754	-0.01709	-0.007172	-0.034943	0.036469	0.004883	0.027771	-0.054779	0.020447	-0.000763	0.068512	0.14969	-0.027618	0.011597	-0.003662	-0.040436	0.041199	0.069122	0.084534	0.38818	-0.008545	0.00824	-0.001984	0.029907	-0.087433	-0.00351	-0.13763	0.066833	0	-0.33157
5.577	0.01358	-0.052948	0.22614	-0.010071	-0.001984	-0.028839	0.032959	0.001678	0.025177	-0.092316	-0.027008	-0.00412	0.18799	0.10986	0.095367	0.019836	-0.014954	-0.002289	0.35492	0.10147	-0.057526	0.42084	-0.031891	0.013885	0.023804	0.035553	-0.13229	-0.005035	0.60989	-0.036621	-0.004578	-0.38467
5.578	0.005188	-0.070801	0.14618	0.010834	0.008087	-0.042114	0.061035	0.002747	0.009766	-0.091858	-0.049286	0.001984	-0.28839	0.018463	-0.025024	0.003662	-0.02182	-0.070038	0.10208	0.031281	-0.13168	0.44098	0.029449	-0.024567	0.011597	0.032349	-0.0737	-0.005188	0.60043	0.004883	-0.000305	-0.43884
